<mxfile host="app.diagrams.net" agent="Mozilla/5.0 (Macintosh; Intel Mac OS X 10_15_7) AppleWebKit/537.36 (KHTML, like Gecko) Chrome/130.0.0.0 Safari/537.36" version="24.8.3">
  <diagram name="Page-1" id="iajb9ZsVEVpYWwLU6l96">
    <mxGraphModel dx="3027" dy="1268" grid="1" gridSize="10" guides="1" tooltips="1" connect="1" arrows="1" fold="1" page="1" pageScale="1" pageWidth="827" pageHeight="1169" math="0" shadow="0">
      <root>
        <mxCell id="0" />
        <mxCell id="1" parent="0" />
        <mxCell id="3eYWyfwemC6j7ub_VEHj-36" value="" style="rounded=1;whiteSpace=wrap;html=1;fillColor=#eeeeee;strokeColor=#36393d;" vertex="1" parent="1">
          <mxGeometry x="-687" y="60" width="560" height="960" as="geometry" />
        </mxCell>
        <mxCell id="3eYWyfwemC6j7ub_VEHj-1" value="SYSYEM DESIGN" style="rounded=1;whiteSpace=wrap;html=1;movable=0;resizable=0;rotatable=0;deletable=0;editable=0;locked=1;connectable=0;" vertex="1" parent="1">
          <mxGeometry x="-480" y="165" width="120" height="60" as="geometry" />
        </mxCell>
        <mxCell id="3eYWyfwemC6j7ub_VEHj-2" value="LIB" style="text;html=1;align=center;verticalAlign=middle;whiteSpace=wrap;rounded=0;movable=0;resizable=0;rotatable=0;deletable=0;editable=0;locked=1;connectable=0;" vertex="1" parent="1">
          <mxGeometry x="-540" y="245" width="60" height="30" as="geometry" />
        </mxCell>
        <mxCell id="3eYWyfwemC6j7ub_VEHj-3" value="" style="endArrow=none;html=1;rounded=0;fillColor=#ffcd28;gradientColor=#ffa500;strokeColor=#d79b00;movable=0;resizable=0;rotatable=0;deletable=0;editable=0;locked=1;connectable=0;" edge="1" parent="1">
          <mxGeometry width="50" height="50" relative="1" as="geometry">
            <mxPoint x="-514" y="955" as="sourcePoint" />
            <mxPoint x="-514" y="275" as="targetPoint" />
          </mxGeometry>
        </mxCell>
        <mxCell id="3eYWyfwemC6j7ub_VEHj-4" value="&lt;font color=&quot;#3399ff&quot;&gt;CORE&lt;/font&gt;" style="text;html=1;align=center;verticalAlign=middle;whiteSpace=wrap;rounded=0;movable=0;resizable=0;rotatable=0;deletable=0;editable=0;locked=1;connectable=0;" vertex="1" parent="1">
          <mxGeometry x="-480" y="285" width="54" height="20" as="geometry" />
        </mxCell>
        <mxCell id="3eYWyfwemC6j7ub_VEHj-7" value="" style="endArrow=none;html=1;rounded=0;entryX=0.047;entryY=0.497;entryDx=0;entryDy=0;entryPerimeter=0;fillColor=#ffcd28;gradientColor=#ffa500;strokeColor=#d79b00;movable=0;resizable=0;rotatable=0;deletable=0;editable=0;locked=1;connectable=0;" edge="1" parent="1" target="3eYWyfwemC6j7ub_VEHj-4">
          <mxGeometry width="50" height="50" relative="1" as="geometry">
            <mxPoint x="-514" y="295" as="sourcePoint" />
            <mxPoint x="-484" y="295" as="targetPoint" />
          </mxGeometry>
        </mxCell>
        <mxCell id="3eYWyfwemC6j7ub_VEHj-10" value="DI" style="text;html=1;align=center;verticalAlign=middle;whiteSpace=wrap;rounded=0;movable=0;resizable=0;rotatable=0;deletable=0;editable=0;locked=1;connectable=0;" vertex="1" parent="1">
          <mxGeometry x="-428.5" y="315" width="31" height="30" as="geometry" />
        </mxCell>
        <mxCell id="3eYWyfwemC6j7ub_VEHj-11" value="Networking" style="text;html=1;align=center;verticalAlign=middle;whiteSpace=wrap;rounded=0;movable=0;resizable=0;rotatable=0;deletable=0;editable=0;locked=1;connectable=0;" vertex="1" parent="1">
          <mxGeometry x="-440" y="345" width="60" height="30" as="geometry" />
        </mxCell>
        <mxCell id="3eYWyfwemC6j7ub_VEHj-12" value="Routing" style="text;html=1;align=center;verticalAlign=middle;whiteSpace=wrap;rounded=0;movable=0;resizable=0;rotatable=0;deletable=0;editable=0;locked=1;connectable=0;" vertex="1" parent="1">
          <mxGeometry x="-443" y="375" width="60" height="30" as="geometry" />
        </mxCell>
        <mxCell id="3eYWyfwemC6j7ub_VEHj-13" value="Helpers" style="text;html=1;align=center;verticalAlign=middle;whiteSpace=wrap;rounded=0;movable=0;resizable=0;rotatable=0;deletable=0;editable=0;locked=1;connectable=0;" vertex="1" parent="1">
          <mxGeometry x="-443" y="405" width="60" height="30" as="geometry" />
        </mxCell>
        <mxCell id="3eYWyfwemC6j7ub_VEHj-14" value="Theming" style="text;html=1;align=center;verticalAlign=middle;whiteSpace=wrap;rounded=0;movable=0;resizable=0;rotatable=0;deletable=0;editable=0;locked=1;connectable=0;" vertex="1" parent="1">
          <mxGeometry x="-440" y="435" width="60" height="30" as="geometry" />
        </mxCell>
        <mxCell id="3eYWyfwemC6j7ub_VEHj-15" value="widgets" style="text;html=1;align=center;verticalAlign=middle;whiteSpace=wrap;rounded=0;movable=0;resizable=0;rotatable=0;deletable=0;editable=0;locked=1;connectable=0;" vertex="1" parent="1">
          <mxGeometry x="-434" y="475" width="54" height="20" as="geometry" />
        </mxCell>
        <mxCell id="3eYWyfwemC6j7ub_VEHj-16" value="" style="endArrow=none;html=1;rounded=0;entryX=0.487;entryY=0.992;entryDx=0;entryDy=0;fillColor=#ffcd28;gradientColor=#ffa500;strokeColor=#d79b00;entryPerimeter=0;endSize=6;targetPerimeterSpacing=0;movable=0;resizable=0;rotatable=0;deletable=0;editable=0;locked=1;connectable=0;" edge="1" parent="1" target="3eYWyfwemC6j7ub_VEHj-4">
          <mxGeometry width="50" height="50" relative="1" as="geometry">
            <mxPoint x="-454" y="485" as="sourcePoint" />
            <mxPoint x="-453.03000000000003" y="305" as="targetPoint" />
            <Array as="points">
              <mxPoint x="-454" y="425" />
            </Array>
          </mxGeometry>
        </mxCell>
        <mxCell id="3eYWyfwemC6j7ub_VEHj-17" value="" style="endArrow=none;html=1;rounded=0;entryX=0;entryY=0.5;entryDx=0;entryDy=0;fillColor=#ffcd28;gradientColor=#ffa500;strokeColor=#d79b00;movable=0;resizable=0;rotatable=0;deletable=0;editable=0;locked=1;connectable=0;" edge="1" parent="1" target="3eYWyfwemC6j7ub_VEHj-10">
          <mxGeometry width="50" height="50" relative="1" as="geometry">
            <mxPoint x="-454" y="329.95" as="sourcePoint" />
            <mxPoint x="-430" y="329.94999999999993" as="targetPoint" />
          </mxGeometry>
        </mxCell>
        <mxCell id="3eYWyfwemC6j7ub_VEHj-18" value="" style="endArrow=none;html=1;rounded=0;exitX=0;exitY=0.5;exitDx=0;exitDy=0;fillColor=#ffcd28;gradientColor=#ffa500;strokeColor=#d79b00;movable=0;resizable=0;rotatable=0;deletable=0;editable=0;locked=1;connectable=0;" edge="1" parent="1" source="3eYWyfwemC6j7ub_VEHj-11">
          <mxGeometry width="50" height="50" relative="1" as="geometry">
            <mxPoint x="-424" y="365" as="sourcePoint" />
            <mxPoint x="-454" y="360" as="targetPoint" />
          </mxGeometry>
        </mxCell>
        <mxCell id="3eYWyfwemC6j7ub_VEHj-19" value="" style="endArrow=none;html=1;rounded=0;entryX=0;entryY=0.5;entryDx=0;entryDy=0;fillColor=#ffcd28;gradientColor=#ffa500;strokeColor=#d79b00;movable=0;resizable=0;rotatable=0;deletable=0;editable=0;locked=1;connectable=0;" edge="1" parent="1" target="3eYWyfwemC6j7ub_VEHj-12">
          <mxGeometry width="50" height="50" relative="1" as="geometry">
            <mxPoint x="-454" y="390" as="sourcePoint" />
            <mxPoint x="-404" y="345" as="targetPoint" />
          </mxGeometry>
        </mxCell>
        <mxCell id="3eYWyfwemC6j7ub_VEHj-20" value="" style="endArrow=none;html=1;rounded=0;entryX=0;entryY=0.5;entryDx=0;entryDy=0;fillColor=#ffcd28;gradientColor=#ffa500;strokeColor=#d79b00;movable=0;resizable=0;rotatable=0;deletable=0;editable=0;locked=1;connectable=0;" edge="1" parent="1">
          <mxGeometry width="50" height="50" relative="1" as="geometry">
            <mxPoint x="-454" y="420" as="sourcePoint" />
            <mxPoint x="-443" y="419.97" as="targetPoint" />
          </mxGeometry>
        </mxCell>
        <mxCell id="3eYWyfwemC6j7ub_VEHj-21" value="" style="endArrow=none;html=1;rounded=0;entryX=0;entryY=0.5;entryDx=0;entryDy=0;fillColor=#ffcd28;gradientColor=#ffa500;strokeColor=#d79b00;movable=0;resizable=0;rotatable=0;deletable=0;editable=0;locked=1;connectable=0;" edge="1" parent="1" target="3eYWyfwemC6j7ub_VEHj-14">
          <mxGeometry width="50" height="50" relative="1" as="geometry">
            <mxPoint x="-454" y="450" as="sourcePoint" />
            <mxPoint x="-404" y="405" as="targetPoint" />
          </mxGeometry>
        </mxCell>
        <mxCell id="3eYWyfwemC6j7ub_VEHj-23" value="" style="endArrow=none;html=1;rounded=0;fillColor=#ffcd28;gradientColor=#ffa500;strokeColor=#d79b00;movable=0;resizable=0;rotatable=0;deletable=0;editable=0;locked=1;connectable=0;" edge="1" parent="1">
          <mxGeometry width="50" height="50" relative="1" as="geometry">
            <mxPoint x="-454" y="485" as="sourcePoint" />
            <mxPoint x="-434" y="485" as="targetPoint" />
          </mxGeometry>
        </mxCell>
        <mxCell id="3eYWyfwemC6j7ub_VEHj-24" value="" style="endArrow=none;html=1;rounded=0;entryX=0;entryY=0.5;entryDx=0;entryDy=0;fillColor=#ffcd28;gradientColor=#ffa500;strokeColor=#d79b00;movable=0;resizable=0;rotatable=0;deletable=0;editable=0;locked=1;connectable=0;" edge="1" parent="1" target="3eYWyfwemC6j7ub_VEHj-25">
          <mxGeometry width="50" height="50" relative="1" as="geometry">
            <mxPoint x="-514" y="605" as="sourcePoint" />
            <mxPoint x="-454" y="605" as="targetPoint" />
          </mxGeometry>
        </mxCell>
        <mxCell id="3eYWyfwemC6j7ub_VEHj-25" value="&lt;font color=&quot;#3399ff&quot;&gt;Features&lt;/font&gt;" style="text;html=1;align=center;verticalAlign=middle;whiteSpace=wrap;rounded=0;movable=0;resizable=0;rotatable=0;deletable=0;editable=0;locked=1;connectable=0;" vertex="1" parent="1">
          <mxGeometry x="-450.5" y="595" width="61" height="20" as="geometry" />
        </mxCell>
        <mxCell id="3eYWyfwemC6j7ub_VEHj-26" value="" style="endArrow=none;html=1;rounded=0;entryX=0.25;entryY=1;entryDx=0;entryDy=0;fillColor=#ffcd28;gradientColor=#ffa500;strokeColor=#d79b00;movable=0;resizable=0;rotatable=0;deletable=0;editable=0;locked=1;connectable=0;" edge="1" parent="1" target="3eYWyfwemC6j7ub_VEHj-25">
          <mxGeometry width="50" height="50" relative="1" as="geometry">
            <mxPoint x="-435" y="885" as="sourcePoint" />
            <mxPoint x="-403" y="645" as="targetPoint" />
          </mxGeometry>
        </mxCell>
        <mxCell id="3eYWyfwemC6j7ub_VEHj-27" value="Authentication" style="text;html=1;align=center;verticalAlign=middle;whiteSpace=wrap;rounded=0;movable=0;resizable=0;rotatable=0;deletable=0;editable=0;locked=1;connectable=0;" vertex="1" parent="1">
          <mxGeometry x="-410.75" y="635" width="76.5" height="20" as="geometry" />
        </mxCell>
        <mxCell id="3eYWyfwemC6j7ub_VEHj-28" value="Home" style="text;html=1;align=center;verticalAlign=middle;whiteSpace=wrap;rounded=0;movable=0;resizable=0;rotatable=0;deletable=0;editable=0;locked=1;connectable=0;" vertex="1" parent="1">
          <mxGeometry x="-397.5" y="665" width="50" height="20" as="geometry" />
        </mxCell>
        <mxCell id="3eYWyfwemC6j7ub_VEHj-29" value="Layout" style="text;html=1;align=center;verticalAlign=middle;whiteSpace=wrap;rounded=0;movable=0;resizable=0;rotatable=0;deletable=0;editable=0;locked=1;connectable=0;" vertex="1" parent="1">
          <mxGeometry x="-397.5" y="699.5" width="50" height="20" as="geometry" />
        </mxCell>
        <mxCell id="3eYWyfwemC6j7ub_VEHj-30" value="Net Zero" style="text;html=1;align=center;verticalAlign=middle;whiteSpace=wrap;rounded=0;movable=0;resizable=0;rotatable=0;deletable=0;editable=0;locked=1;connectable=0;" vertex="1" parent="1">
          <mxGeometry x="-397.5" y="735" width="50" height="20" as="geometry" />
        </mxCell>
        <mxCell id="3eYWyfwemC6j7ub_VEHj-31" value="" style="endArrow=none;html=1;rounded=0;entryX=0;entryY=0.5;entryDx=0;entryDy=0;fillColor=#ffcd28;gradientColor=#ffa500;strokeColor=#d79b00;movable=0;resizable=0;rotatable=0;deletable=0;editable=0;locked=1;connectable=0;" edge="1" parent="1" target="3eYWyfwemC6j7ub_VEHj-27">
          <mxGeometry width="50" height="50" relative="1" as="geometry">
            <mxPoint x="-435" y="645" as="sourcePoint" />
            <mxPoint x="-414" y="645" as="targetPoint" />
          </mxGeometry>
        </mxCell>
        <mxCell id="3eYWyfwemC6j7ub_VEHj-32" value="" style="endArrow=none;html=1;rounded=0;entryX=0;entryY=0.5;entryDx=0;entryDy=0;fillColor=#ffcd28;gradientColor=#ffa500;strokeColor=#d79b00;movable=0;resizable=0;rotatable=0;deletable=0;editable=0;locked=1;connectable=0;" edge="1" parent="1" target="3eYWyfwemC6j7ub_VEHj-28">
          <mxGeometry width="50" height="50" relative="1" as="geometry">
            <mxPoint x="-435" y="675" as="sourcePoint" />
            <mxPoint x="-385" y="625" as="targetPoint" />
          </mxGeometry>
        </mxCell>
        <mxCell id="3eYWyfwemC6j7ub_VEHj-33" value="" style="endArrow=none;html=1;rounded=0;entryX=0;entryY=0.5;entryDx=0;entryDy=0;fillColor=#ffcd28;gradientColor=#ffa500;strokeColor=#d79b00;movable=0;resizable=0;rotatable=0;deletable=0;editable=0;locked=1;connectable=0;" edge="1" parent="1" target="3eYWyfwemC6j7ub_VEHj-29">
          <mxGeometry width="50" height="50" relative="1" as="geometry">
            <mxPoint x="-434" y="710" as="sourcePoint" />
            <mxPoint x="-385" y="660" as="targetPoint" />
          </mxGeometry>
        </mxCell>
        <mxCell id="3eYWyfwemC6j7ub_VEHj-34" value="" style="endArrow=none;html=1;rounded=0;entryX=0;entryY=0.5;entryDx=0;entryDy=0;fillColor=#ffcd28;gradientColor=#ffa500;strokeColor=#d79b00;movable=0;resizable=0;rotatable=0;deletable=0;editable=0;locked=1;connectable=0;" edge="1" parent="1" target="3eYWyfwemC6j7ub_VEHj-30">
          <mxGeometry width="50" height="50" relative="1" as="geometry">
            <mxPoint x="-435" y="745" as="sourcePoint" />
            <mxPoint x="-385" y="699.5" as="targetPoint" />
          </mxGeometry>
        </mxCell>
      </root>
    </mxGraphModel>
  </diagram>
</mxfile>
